<svg width="62" height="108" viewBox="0 0 62 108" fill="none" xmlns="http://www.w3.org/2000/svg">
<path d="M51.0009 104.358L50.1812 101.671L48.689 100L46.8779 97.2843L44.4315 96.2347C37.1865 99.252 30.3818 104.269 21.6345 106.11C20.7353 106.383 15.7813 106.749 14.5878 107.112L12.6706 106.713C11.3975 106.288 7.92309 105.061 7.64902 104.162C6.47573 103.537 4.72013 100.974 4.72013 100.974L1.57579 90.6661C-0.200675 84.8423 1.39501 80.4379 1.17582 75.4434C1.28188 73.1259 5.90415 64.703 7.48597 62.9183C10.2752 58.1507 16.5369 55.1024 18.668 49.2318C18.1224 47.443 18.0174 40.1285 17.4693 38.3315C17.1952 37.433 16.8289 32.4832 16.4651 31.2907C16.2384 30.5474 17.4678 24.9423 17.1962 24.052C18.1503 19.6823 17.4815 14.8245 18.9957 10.1237C18.9957 10.1237 20.5427 7.69792 21.4419 7.42425C26.1117 2.90557 31.3472 -0.812369 37.693 0.193088C42.2139 1.10235 49.6269 5.05007 50.7207 8.63587L54.5028 21.0351C54.5028 21.0351 54.0021 23.1424 54.2762 24.0409C53.4901 31.6265 47.8764 36.2719 42.2954 42.0498C41.3962 42.3235 37.7975 47.6588 36.9064 47.93L34.3439 49.6918C33.4446 49.9655 31.201 52.7728 31.5199 53.8183L33.2067 59.3481L34.8152 61.9561C35.0892 62.8546 38.8662 67.7393 39.23 68.9318L41.5419 73.2895C41.816 74.188 43.2609 75.7031 43.2609 75.7031C43.2609 75.7031 45.8443 77.202 46.071 77.9453C47.2891 78.7172 47.2891 78.7172 48.3355 78.3987C49.0794 78.1723 51.5257 75.4729 51.5257 75.4729C52.4249 75.1992 53.804 69.5576 54.8503 69.2391L58.439 68.1469L59.7595 68.7269L61.4911 74.4038C61.4911 74.4038 58.7916 79.4654 58.5428 81.3443L57.1902 83.8804L54.3663 88.0069C53.7411 89.1791 53.7411 89.1791 54.0127 90.0694C55.8238 92.7853 58.1149 93.8822 60.1976 97.4884L61.3362 101.221C61.6205 105.375 59.7981 109.036 55.048 107.375L52.5568 106.178L51.0009 104.358ZM29.9824 93.2947C31.928 92.7026 35.4921 90.4753 35.4921 90.4753C36.3913 90.2016 38.7821 87.3495 39.5341 87.1206C35.6037 84.3981 33.2918 80.0404 30.8902 75.3887C30.6161 74.4902 28.8972 72.0766 28.8972 72.0766C28.5334 70.8841 26.0744 66.5712 25.8003 65.6727C25.5262 64.7742 23.7624 62.2136 23.7624 62.2136L22.442 61.6335C21.6981 61.8599 19.1274 63.6242 18.3077 64.686C17.7723 66.1522 14.5846 69.0862 14.5846 69.0862L13.1297 71.8141C12.6125 72.7838 11.1009 77.4929 10.1814 78.7546L8.93682 81.0883C8.93682 81.0883 8.90217 84.1963 9.22109 85.2418L12.0465 94.5045C12.3206 95.403 15.0202 97.8395 15.9195 97.5658C20.4143 98.3312 26.6678 95.2854 29.9824 93.2947ZM44.9303 23.9485C45.6129 22.4375 45.6924 19.4765 45.6924 19.4765C45.6924 19.4765 43.6545 16.0173 43.3804 15.1188C41.4695 12.603 36.6949 9.80713 34.0749 11.9078C33.1756 12.1815 31.6594 13.6248 31.6594 13.6248C30.987 14.6418 28.29 19.7116 27.8119 20.839C27.8119 20.839 26.6311 24.4654 26.8579 25.2087C27.1768 26.2543 26.5252 30.5319 26.7992 31.4304C27.4371 33.5215 26.9042 38.7449 27.1758 39.6353L27.9955 42.3226C34.0223 38.5334 41.982 30.889 44.9303 23.9485Z" fill="#EE6C23"/>
</svg>
