<svg width="246" height="71" viewBox="0 0 246 71" fill="none" xmlns="http://www.w3.org/2000/svg">
<path d="M18.2528 59.737C15.7177 57.2019 13.5376 54.2105 11.8138 50.8643C4.91841 37.3778 7.55486 20.9506 18.2528 10.2527L30.0662 22.066C24.489 27.6432 23.1201 36.2116 26.7199 43.2591C27.5818 44.9829 28.7479 46.5547 30.0662 47.8729L18.2528 59.737Z" fill="#6CACE4"/>
<path d="M67.7372 59.7372C62.6164 64.858 55.9746 68.3564 48.4708 69.5732C37.2151 71.3477 26.0102 67.5452 18.2529 59.7372L30.0663 47.9238C34.1224 51.9799 39.953 53.9573 45.8343 53.0446C49.7383 52.4362 53.2367 50.5603 55.8731 47.9238L67.7372 59.7372Z" fill="#259789"/>
<path d="M67.7372 10.2527C75.4945 18.01 79.3477 29.2149 77.5732 40.4705C76.4071 47.9743 72.858 54.6161 67.7372 59.737L55.9238 47.9236C58.611 45.2364 60.4362 41.7888 61.0446 37.8848C61.9573 32.0035 59.9799 26.1728 55.9238 22.1167L67.7372 10.2527Z" fill="#F0A600"/>
<path d="M18.2529 10.2528C28.9509 -0.445135 45.378 -3.08159 58.8645 3.81376C62.2108 5.53759 65.1515 7.71774 67.7372 10.2528L55.9239 22.0662C54.6056 20.7479 53.0339 19.5818 51.31 18.7199C44.2626 15.1201 35.6941 16.489 30.117 22.0662L18.2529 10.2528Z" fill="#EE6C23"/>
<mask id="mask0_2_1184" style="mask-type:alpha" maskUnits="userSpaceOnUse" x="8" y="10" width="23" height="50">
<path d="M18.2528 59.737C15.7177 57.2019 13.5376 54.2105 11.8138 50.8643C4.91841 37.3778 7.55486 20.9506 18.2528 10.2527L30.0662 22.066C24.489 27.6432 23.1201 36.2116 26.7199 43.2591C27.5818 44.9829 28.7479 46.5547 30.0662 47.8729L18.2528 59.737Z" fill="#6CACE4"/>
</mask>
<g mask="url(#mask0_2_1184)">
<path d="M68.9087 4.62936L12.623 60.915L14.8816 63.1736L71.1673 6.88796L68.9087 4.62936Z" fill="#025EA1"/>
<path d="M64.3921 0.127653L8.10645 56.4133L10.365 58.6719L66.6507 2.38625L64.3921 0.127653Z" fill="#025EA1"/>
<path d="M59.9117 -4.40994L3.62598 51.8757L5.88457 54.1343L62.1703 -2.15134L59.9117 -4.40994Z" fill="#025EA1"/>
<path d="M55.3941 -8.91166L-0.891602 47.374L1.367 49.6326L57.6527 -6.65307L55.3941 -8.91166Z" fill="#025EA1"/>
<path d="M50.9136 -13.3777L-5.37207 42.908L-3.11347 45.1666L53.1722 -11.1191L50.9136 -13.3777Z" fill="#025EA1"/>
<path d="M46.397 -17.8794L-9.88867 38.4062L-7.63007 40.6648L48.6556 -15.6208L46.397 -17.8794Z" fill="#025EA1"/>
</g>
<mask id="mask1_2_1184" style="mask-type:alpha" maskUnits="userSpaceOnUse" x="18" y="0" width="50" height="23">
<path d="M18.2529 10.2528C28.9509 -0.445135 45.378 -3.08159 58.8645 3.81376C62.2108 5.53759 65.1515 7.71774 67.7372 10.2528L55.9239 22.0662C54.6056 20.7479 53.0339 19.5818 51.31 18.7199C44.2626 15.1201 35.6941 16.489 30.117 22.0662L18.2529 10.2528Z" fill="#EE6C23"/>
</mask>
<g mask="url(#mask1_2_1184)">
<path d="M68.9087 4.62961L12.623 60.9153L14.8816 63.1739L71.1673 6.88821L68.9087 4.62961Z" fill="#B22174"/>
<path d="M64.3921 0.127893L8.10645 56.4136L10.365 58.6722L66.6507 2.38649L64.3921 0.127893Z" fill="#B22174"/>
<path d="M59.9117 -4.40969L3.62598 51.876L5.88458 54.1346L62.1703 -2.1511L59.9117 -4.40969Z" fill="#B22174"/>
<path d="M55.3941 -8.91142L-0.891602 47.3743L1.36699 49.6329L57.6527 -6.65283L55.3941 -8.91142Z" fill="#B22174"/>
<path d="M50.9136 -13.3775L-5.37207 42.9082L-3.11347 45.1668L53.1722 -11.1189L50.9136 -13.3775Z" fill="#B22174"/>
<path d="M46.397 -17.8792L-9.88867 38.4065L-7.63007 40.6651L48.6556 -15.6206L46.397 -17.8792Z" fill="#B22174"/>
</g>
<path d="M65.8106 21.3057V44.1212L42.9951 21.3057H65.8106Z" fill="#025EA1"/>
<path d="M29.7082 46.4586C30.7714 46.4586 31.6332 45.5968 31.6332 44.5336C31.6332 43.4705 30.7714 42.6086 29.7082 42.6086C28.6451 42.6086 27.7832 43.4705 27.7832 44.5336C27.7832 45.5968 28.6451 46.4586 29.7082 46.4586Z" fill="#B2C541"/>
<path d="M29.7082 37.3283C30.7714 37.3283 31.6332 36.4664 31.6332 35.4033C31.6332 34.3401 30.7714 33.4783 29.7082 33.4783C28.6451 33.4783 27.7832 34.3401 27.7832 35.4033C27.7832 36.4664 28.6451 37.3283 29.7082 37.3283Z" fill="#B2C541"/>
<path d="M38.8381 46.4586C39.9012 46.4586 40.7631 45.5968 40.7631 44.5336C40.7631 43.4705 39.9012 42.6086 38.8381 42.6086C37.7749 42.6086 36.9131 43.4705 36.9131 44.5336C36.9131 45.5968 37.7749 46.4586 38.8381 46.4586Z" fill="#B2C541"/>
<path d="M38.8381 37.3283C39.9012 37.3283 40.7631 36.4664 40.7631 35.4033C40.7631 34.3401 39.9012 33.4783 38.8381 33.4783C37.7749 33.4783 36.9131 34.3401 36.9131 35.4033C36.9131 36.4664 37.7749 37.3283 38.8381 37.3283Z" fill="#B2C541"/>
<path d="M20.5773 46.4586C21.6405 46.4586 22.5023 45.5968 22.5023 44.5336C22.5023 43.4705 21.6405 42.6086 20.5773 42.6086C19.5142 42.6086 18.6523 43.4705 18.6523 44.5336C18.6523 45.5968 19.5142 46.4586 20.5773 46.4586Z" fill="#B2C541"/>
<path d="M20.5773 37.3283C21.6405 37.3283 22.5023 36.4664 22.5023 35.4033C22.5023 34.3401 21.6405 33.4783 20.5773 33.4783C19.5142 33.4783 18.6523 34.3401 18.6523 35.4033C18.6523 36.4664 19.5142 37.3283 20.5773 37.3283Z" fill="#B2C541"/>
<path d="M11.4465 46.4586C12.5096 46.4586 13.3715 45.5968 13.3715 44.5336C13.3715 43.4705 12.5096 42.6086 11.4465 42.6086C10.3833 42.6086 9.52148 43.4705 9.52148 44.5336C9.52148 45.5968 10.3833 46.4586 11.4465 46.4586Z" fill="#B2C541"/>
<path d="M11.4465 37.3283C12.5096 37.3283 13.3715 36.4664 13.3715 35.4033C13.3715 34.3401 12.5096 33.4783 11.4465 33.4783C10.3833 33.4783 9.52148 34.3401 9.52148 35.4033C9.52148 36.4664 10.3833 37.3283 11.4465 37.3283Z" fill="#B2C541"/>
<path d="M20.5773 64.7196C21.6405 64.7196 22.5023 63.8578 22.5023 62.7946C22.5023 61.7315 21.6405 60.8696 20.5773 60.8696C19.5142 60.8696 18.6523 61.7315 18.6523 62.7946C18.6523 63.8578 19.5142 64.7196 20.5773 64.7196Z" fill="#B2C541"/>
<path d="M20.5773 55.5893C21.6405 55.5893 22.5023 54.7274 22.5023 53.6643C22.5023 52.6011 21.6405 51.7393 20.5773 51.7393C19.5142 51.7393 18.6523 52.6011 18.6523 53.6643C18.6523 54.7274 19.5142 55.5893 20.5773 55.5893Z" fill="#B2C541"/>
<path d="M29.7082 55.5893C30.7714 55.5893 31.6332 54.7274 31.6332 53.6643C31.6332 52.6011 30.7714 51.7393 29.7082 51.7393C28.6451 51.7393 27.7832 52.6011 27.7832 53.6643C27.7832 54.7274 28.6451 55.5893 29.7082 55.5893Z" fill="#B2C541"/>
<path d="M47.9689 46.4586C49.0321 46.4586 49.8939 45.5968 49.8939 44.5336C49.8939 43.4705 49.0321 42.6086 47.9689 42.6086C46.9058 42.6086 46.0439 43.4705 46.0439 44.5336C46.0439 45.5968 46.9058 46.4586 47.9689 46.4586Z" fill="#B2C541"/>
<path d="M47.9689 37.3283C49.0321 37.3283 49.8939 36.4664 49.8939 35.4033C49.8939 34.3401 49.0321 33.4783 47.9689 33.4783C46.9058 33.4783 46.0439 34.3401 46.0439 35.4033C46.0439 36.4664 46.9058 37.3283 47.9689 37.3283Z" fill="#B2C541"/>
<path d="M29.7082 64.7196C30.7714 64.7196 31.6332 63.8578 31.6332 62.7946C31.6332 61.7315 30.7714 60.8696 29.7082 60.8696C28.6451 60.8696 27.7832 61.7315 27.7832 62.7946C27.7832 63.8578 28.6451 64.7196 29.7082 64.7196Z" fill="#B2C541"/>
<path d="M38.8381 64.7196C39.9012 64.7196 40.7631 63.8578 40.7631 62.7946C40.7631 61.7315 39.9012 60.8696 38.8381 60.8696C37.7749 60.8696 36.9131 61.7315 36.9131 62.7946C36.9131 63.8578 37.7749 64.7196 38.8381 64.7196Z" fill="#B2C541"/>
<path d="M47.9689 64.7196C49.0321 64.7196 49.8939 63.8578 49.8939 62.7946C49.8939 61.7315 49.0321 60.8696 47.9689 60.8696C46.9058 60.8696 46.0439 61.7315 46.0439 62.7946C46.0439 63.8578 46.9058 64.7196 47.9689 64.7196Z" fill="#B2C541"/>
<path d="M38.8381 55.5892C39.9012 55.5892 40.7631 54.7274 40.7631 53.6643C40.7631 52.6011 39.9012 51.7393 38.8381 51.7393C37.7749 51.7393 36.9131 52.6011 36.9131 53.6643C36.9131 54.7274 37.7749 55.5892 38.8381 55.5892Z" fill="#B2C541"/>
<path d="M47.9689 55.5893C49.0321 55.5893 49.8939 54.7274 49.8939 53.6643C49.8939 52.6011 49.0321 51.7393 47.9689 51.7393C46.9058 51.7393 46.0439 52.6011 46.0439 53.6643C46.0439 54.7274 46.9058 55.5893 47.9689 55.5893Z" fill="#B2C541"/>
<path d="M11.4465 64.7196C12.5096 64.7196 13.3715 63.8578 13.3715 62.7946C13.3715 61.7315 12.5096 60.8696 11.4465 60.8696C10.3833 60.8696 9.52148 61.7315 9.52148 62.7946C9.52148 63.8578 10.3833 64.7196 11.4465 64.7196Z" fill="#B2C541"/>
<path d="M11.4465 55.5893C12.5096 55.5893 13.3715 54.7274 13.3715 53.6643C13.3715 52.6011 12.5096 51.7393 11.4465 51.7393C10.3833 51.7393 9.52148 52.6011 9.52148 53.6643C9.52148 54.7274 10.3833 55.5893 11.4465 55.5893Z" fill="#B2C541"/>
<path d="M2.3166 46.4586C3.37975 46.4586 4.2416 45.5968 4.2416 44.5336C4.2416 43.4705 3.37975 42.6086 2.3166 42.6086C1.25345 42.6086 0.391602 43.4705 0.391602 44.5336C0.391602 45.5968 1.25345 46.4586 2.3166 46.4586Z" fill="#B2C541"/>
<path d="M2.3166 37.3283C3.37975 37.3283 4.2416 36.4664 4.2416 35.4033C4.2416 34.3401 3.37975 33.4783 2.3166 33.4783C1.25345 33.4783 0.391602 34.3401 0.391602 35.4033C0.391602 36.4664 1.25345 37.3283 2.3166 37.3283Z" fill="#B2C541"/>
<path d="M2.3166 64.7196C3.37975 64.7196 4.2416 63.8578 4.2416 62.7946C4.2416 61.7315 3.37975 60.8696 2.3166 60.8696C1.25345 60.8696 0.391602 61.7315 0.391602 62.7946C0.391602 63.8578 1.25345 64.7196 2.3166 64.7196Z" fill="#B2C541"/>
<path d="M2.3166 55.5893C3.37975 55.5893 4.2416 54.7274 4.2416 53.6643C4.2416 52.6011 3.37975 51.7393 2.3166 51.7393C1.25345 51.7393 0.391602 52.6011 0.391602 53.6643C0.391602 54.7274 1.25345 55.5893 2.3166 55.5893Z" fill="#B2C541"/>
<path d="M112.822 39.9914H104.635L103.114 44.6784H98.6094L105.883 23.374H111.818L119.001 44.6784H114.344L112.822 39.9914ZM105.883 36.0045H111.575L108.744 27.0516L105.883 36.0045Z" fill="#36393D"/>
<path d="M129.866 32.6871H125.575V38.6523C125.575 40.5089 126.082 41.3306 128.04 41.3306C128.58 41.3151 129.115 41.2123 129.622 41.0262L130.201 44.2219C129.146 44.7887 127.958 45.062 126.761 45.0132C122.896 45.0132 121.435 43.248 121.435 39.9407V32.6871H118.605V29.1364H121.435V25.8697L125.575 24.4697V29.1567H129.866V32.6871Z" fill="#36393D"/>
<path d="M131.753 36.9175C131.753 31.6522 134.827 28.8015 139.869 28.8015C145.012 28.8015 147.985 31.5102 147.985 36.9175C147.985 42.1218 145.063 45.0334 139.869 45.0334C134.675 45.0334 131.753 42.3957 131.753 36.9175ZM143.653 36.9175C143.653 33.6609 142.466 32.2305 139.879 32.2305C137.444 32.2305 136.075 33.6914 136.075 36.9175C136.075 40.1435 137.566 41.574 139.879 41.574C142.375 41.574 143.663 40.1131 143.663 36.9175H143.653Z" fill="#36393D"/>
<path d="M173.251 44.6785H169.142V35.9132C169.142 33.6002 168.686 32.4132 166.89 32.4132C164.638 32.4132 163.938 34.2698 163.938 37.1002V44.6785H159.829V35.9132C159.829 33.7524 159.322 32.4132 157.547 32.4132C155.294 32.4132 154.625 34.2089 154.625 37.1002V44.6785H150.516V29.1567H154.473V31.4698H154.533C155.599 29.6132 157.181 28.8828 159.19 28.8828C161.351 28.8828 162.873 29.8263 163.481 31.9263C164.668 29.735 166.251 28.8828 168.442 28.8828C171.82 28.8828 173.251 30.8306 173.251 34.6654V44.6785Z" fill="#36393D"/>
<path d="M181.382 44.6784H176.816V23.374H184.151C189.508 23.374 192.886 25.5958 192.886 30.4755C192.886 35.2842 189.416 37.9929 183.725 37.9929H181.382V44.6784ZM181.29 33.9958H183.786C186.525 33.9958 188.169 32.9305 188.169 30.6784C188.169 28.3045 186.616 27.3914 183.816 27.3914H181.28L181.29 33.9958Z" fill="#36393D"/>
<path d="M199.156 44.6783H195.017V29.1566H198.953V31.6928H199.014C199.835 29.8363 201.175 28.8928 203.153 28.8928C203.767 28.9003 204.379 28.9717 204.979 29.1059V32.8798C204.36 32.6779 203.713 32.5752 203.062 32.5754C200.079 32.5754 199.135 34.3407 199.135 37.7798L199.156 44.6783Z" fill="#36393D"/>
<path d="M206.12 36.9175C206.12 31.6522 209.194 28.8015 214.236 28.8015C219.38 28.8015 222.352 31.5102 222.352 36.9175C222.352 42.1218 219.43 45.0334 214.236 45.0334C209.042 45.0334 206.12 42.3957 206.12 36.9175ZM218.02 36.9175C218.02 33.6609 216.833 32.2305 214.246 32.2305C211.811 32.2305 210.442 33.6914 210.442 36.9175C210.442 40.1435 211.933 41.574 214.246 41.574C216.742 41.574 218.02 40.1131 218.02 36.9175Z" fill="#36393D"/>
<path d="M234.333 32.6871H230.437V44.6784H226.298V32.6871H223.468V29.1363H226.298V27.2392C226.298 23.8305 227.85 21.6088 231.878 21.6088C232.884 21.6005 233.886 21.7233 234.861 21.974L234.161 25.2305C233.78 25.1534 233.393 25.1126 233.004 25.1088C230.975 25.1088 230.468 25.8392 230.468 28.1523V29.1668H234.363L234.333 32.6871Z" fill="#36393D"/>
<path d="M238.482 26.448C236.899 26.448 235.986 25.5958 235.986 24.1958C235.986 22.7958 236.899 22.0349 238.482 22.0349C240.065 22.0349 241.018 22.8262 241.018 24.1958C241.018 25.5653 240.125 26.448 238.482 26.448ZM240.546 44.6784H236.407V29.1567H240.546V44.6784Z" fill="#36393D"/>
<path d="M89.6716 6.09717H88.2158V64.1414H89.6716V6.09717Z" fill="#6CACE4"/>
</svg>
