<svg width="100" height="63" viewBox="0 0 100 63" fill="none" xmlns="http://www.w3.org/2000/svg">
<path d="M59.375 25C61.1009 25 62.5 23.6009 62.5 21.875C62.5 20.1491 61.1009 18.75 59.375 18.75C57.6491 18.75 56.25 20.1491 56.25 21.875C56.25 23.6009 57.6491 25 59.375 25Z" fill="#B2C541"/>
<path d="M59.375 6.25C61.1009 6.25 62.5 4.85089 62.5 3.125C62.5 1.39911 61.1009 0 59.375 0C57.6491 0 56.25 1.39911 56.25 3.125C56.25 4.85089 57.6491 6.25 59.375 6.25Z" fill="#B2C541"/>
<path d="M78.125 25C79.8509 25 81.25 23.6009 81.25 21.875C81.25 20.1491 79.8509 18.75 78.125 18.75C76.3991 18.75 75 20.1491 75 21.875C75 23.6009 76.3991 25 78.125 25Z" fill="#B2C541"/>
<path d="M78.125 6.25C79.8509 6.25 81.25 4.85089 81.25 3.125C81.25 1.39911 79.8509 0 78.125 0C76.3991 0 75 1.39911 75 3.125C75 4.85089 76.3991 6.25 78.125 6.25Z" fill="#B2C541"/>
<path d="M40.625 25C42.3509 25 43.75 23.6009 43.75 21.875C43.75 20.1491 42.3509 18.75 40.625 18.75C38.8991 18.75 37.5 20.1491 37.5 21.875C37.5 23.6009 38.8991 25 40.625 25Z" fill="#B2C541"/>
<path d="M40.625 6.25C42.3509 6.25 43.75 4.85089 43.75 3.125C43.75 1.39911 42.3509 0 40.625 0C38.8991 0 37.5 1.39911 37.5 3.125C37.5 4.85089 38.8991 6.25 40.625 6.25Z" fill="#B2C541"/>
<path d="M21.875 25C23.6009 25 25 23.6009 25 21.875C25 20.1491 23.6009 18.75 21.875 18.75C20.1491 18.75 18.75 20.1491 18.75 21.875C18.75 23.6009 20.1491 25 21.875 25Z" fill="#B2C541"/>
<path d="M21.875 6.25C23.6009 6.25 25 4.85089 25 3.125C25 1.39911 23.6009 0 21.875 0C20.1491 0 18.75 1.39911 18.75 3.125C18.75 4.85089 20.1491 6.25 21.875 6.25Z" fill="#B2C541"/>
<path d="M40.625 62.5C42.3509 62.5 43.75 61.1009 43.75 59.375C43.75 57.6491 42.3509 56.25 40.625 56.25C38.8991 56.25 37.5 57.6491 37.5 59.375C37.5 61.1009 38.8991 62.5 40.625 62.5Z" fill="#B2C541"/>
<path d="M40.625 43.75C42.3509 43.75 43.75 42.3509 43.75 40.625C43.75 38.8991 42.3509 37.5 40.625 37.5C38.8991 37.5 37.5 38.8991 37.5 40.625C37.5 42.3509 38.8991 43.75 40.625 43.75Z" fill="#B2C541"/>
<path d="M59.375 43.75C61.1009 43.75 62.5 42.3509 62.5 40.625C62.5 38.8991 61.1009 37.5 59.375 37.5C57.6491 37.5 56.25 38.8991 56.25 40.625C56.25 42.3509 57.6491 43.75 59.375 43.75Z" fill="#B2C541"/>
<path d="M96.875 25C98.6009 25 100 23.6009 100 21.875C100 20.1491 98.6009 18.75 96.875 18.75C95.1491 18.75 93.75 20.1491 93.75 21.875C93.75 23.6009 95.1491 25 96.875 25Z" fill="#B2C541"/>
<path d="M96.875 6.25C98.6009 6.25 100 4.85089 100 3.125C100 1.39911 98.6009 0 96.875 0C95.1491 0 93.75 1.39911 93.75 3.125C93.75 4.85089 95.1491 6.25 96.875 6.25Z" fill="#B2C541"/>
<path d="M59.375 62.5C61.1009 62.5 62.5 61.1009 62.5 59.375C62.5 57.6491 61.1009 56.25 59.375 56.25C57.6491 56.25 56.25 57.6491 56.25 59.375C56.25 61.1009 57.6491 62.5 59.375 62.5Z" fill="#B2C541"/>
<path d="M78.125 62.5C79.8509 62.5 81.25 61.1009 81.25 59.375C81.25 57.6491 79.8509 56.25 78.125 56.25C76.3991 56.25 75 57.6491 75 59.375C75 61.1009 76.3991 62.5 78.125 62.5Z" fill="#B2C541"/>
<path d="M96.875 62.5C98.6009 62.5 100 61.1009 100 59.375C100 57.6491 98.6009 56.25 96.875 56.25C95.1491 56.25 93.75 57.6491 93.75 59.375C93.75 61.1009 95.1491 62.5 96.875 62.5Z" fill="#B2C541"/>
<path d="M78.125 43.75C79.8509 43.75 81.25 42.3509 81.25 40.625C81.25 38.8991 79.8509 37.5 78.125 37.5C76.3991 37.5 75 38.8991 75 40.625C75 42.3509 76.3991 43.75 78.125 43.75Z" fill="#B2C541"/>
<path d="M96.875 43.75C98.6009 43.75 100 42.3509 100 40.625C100 38.8991 98.6009 37.5 96.875 37.5C95.1491 37.5 93.75 38.8991 93.75 40.625C93.75 42.3509 95.1491 43.75 96.875 43.75Z" fill="#B2C541"/>
<path d="M21.875 62.5C23.6009 62.5 25 61.1009 25 59.375C25 57.6491 23.6009 56.25 21.875 56.25C20.1491 56.25 18.75 57.6491 18.75 59.375C18.75 61.1009 20.1491 62.5 21.875 62.5Z" fill="#B2C541"/>
<path d="M21.875 43.75C23.6009 43.75 25 42.3509 25 40.625C25 38.8991 23.6009 37.5 21.875 37.5C20.1491 37.5 18.75 38.8991 18.75 40.625C18.75 42.3509 20.1491 43.75 21.875 43.75Z" fill="#B2C541"/>
<path d="M3.125 25C4.85089 25 6.25 23.6009 6.25 21.875C6.25 20.1491 4.85089 18.75 3.125 18.75C1.39911 18.75 0 20.1491 0 21.875C0 23.6009 1.39911 25 3.125 25Z" fill="#B2C541"/>
<path d="M3.125 6.25C4.85089 6.25 6.25 4.85089 6.25 3.125C6.25 1.39911 4.85089 0 3.125 0C1.39911 0 0 1.39911 0 3.125C0 4.85089 1.39911 6.25 3.125 6.25Z" fill="#B2C541"/>
<path d="M3.125 62.5C4.85089 62.5 6.25 61.1009 6.25 59.375C6.25 57.6491 4.85089 56.25 3.125 56.25C1.39911 56.25 0 57.6491 0 59.375C0 61.1009 1.39911 62.5 3.125 62.5Z" fill="#B2C541"/>
<path d="M3.125 43.75C4.85089 43.75 6.25 42.3509 6.25 40.625C6.25 38.8991 4.85089 37.5 3.125 37.5C1.39911 37.5 0 38.8991 0 40.625C0 42.3509 1.39911 43.75 3.125 43.75Z" fill="#B2C541"/>
</svg>
