<svg width="75" height="141" viewBox="0 0 75 141" fill="none" xmlns="http://www.w3.org/2000/svg">
<path d="M-45.3562 20.6508C-23.7577 -0.947696 9.2837 -6.17875 36.5015 7.6856C63.7193 21.5499 78.9016 51.3629 74.1303 81.5232C69.3488 111.684 45.6967 135.346 15.5262 140.127C-14.6442 144.909 -44.4469 129.716 -58.3112 102.499C-72.1755 75.2807 -66.9547 42.2494 -45.3562 20.6508ZM-28.2736 87.1936C-21.04 101.395 -5.48992 109.313 10.2543 106.82C25.9985 104.327 38.3405 91.9853 40.8334 76.2411C43.3264 60.4968 35.3981 44.9467 21.2068 37.7131C7.00533 30.4795 -10.2306 33.2074 -21.4998 44.4767C-32.7792 55.7561 -35.5071 73.0023 -28.2736 87.1936Z" fill="#259789"/>
</svg>
