<svg width="48" height="33" viewBox="0 0 48 33" fill="none" xmlns="http://www.w3.org/2000/svg">
<path d="M0.444504 8.6172V7.92549C-0.169854 7.07923 -0.0156252 6.53955 0.136068 5.69328C1.97914 3.2305 3.13201 0.767719 7.35415 0.691707C8.35279 0.152023 9.81158 0 11.5004 0C14.7264 0.0760118 18.5668 0.846264 21.1759 1.38595L23.4033 1.07683C28.1639 1.69253 30.6998 1.38595 33.9232 0.691707C35.4604 0.382592 37.1493 1.46196 38.2238 1.69253C39.5283 1.53797 40.8354 1.46196 42.14 1.38595C42.4484 1.92563 42.6001 1.92563 42.8302 2.69335C43.7504 3.84873 43.2903 5.3867 42.8302 6.61809C40.9112 6.07841 38.1454 6.23296 35.918 5.92638C34.8435 7.5429 34.4592 11.1611 34.4592 14.9312C34.5351 19.7808 35.4579 24.8584 36.9167 26.7055C37.6852 27.6303 38.2996 28.1674 39.8342 28.322C43.6746 29.8625 43.9805 26.3989 47.0523 26.0898C47.5124 26.86 47.6667 26.936 47.6667 28.322C46.8222 29.2443 45.7477 30.7848 45.055 32.0162C43.2119 31.7096 40.5244 33.3236 39.1415 32.941C38.9114 32.6319 38.7572 32.2493 38.5271 32.0162C37.9886 32.0922 37.3743 32.2467 36.9141 32.2467C31.0765 29.9385 31.7692 22.7022 30.3104 15.8535C29.8503 13.3147 31.7692 9.77258 30.3104 7.61891C29.9261 6.07841 28.8516 5.46271 27.0844 5.31069C25.2413 5.31069 24.0126 5.69581 22.4755 5.31069C22.2454 6.08094 21.9369 6.46607 21.401 7.00322C21.3251 11.6222 21.2467 17.8552 20.4807 22.089C20.2506 23.3964 21.0192 23.7815 21.1709 24.3972C21.5552 25.8592 20.6324 30.4782 20.4807 30.7088C20.0205 31.631 19.8663 31.9401 18.7918 32.2493C17.5631 30.7088 16.5645 30.7088 16.5645 27.7088C17.7173 25.9377 15.9501 23.7055 16.1802 22.3981C16.6403 20.3965 18.5618 8.77682 16.8704 5.92892C16.1802 5.38923 15.4874 4.9281 14.8731 4.38841C13.6444 5.77436 11.1111 5.38923 8.7295 5.54379C7.04064 5.6198 5.42763 5.85037 4.35314 7.31487C4.12307 7.62398 4.19893 7.54543 4.0447 8.31569C2.28759 8.54119 2.4418 8.69321 0.444504 8.6172Z" fill="#B22174"/>
</svg>
