<svg width="75" height="37" viewBox="0 0 75 37" fill="none" xmlns="http://www.w3.org/2000/svg">
<path d="M8.82264 29.9576C9.49104 25.5536 9.58245 21.2922 10.2733 16.9798L11.0294 15.0375C10.301 14.5946 9.09608 14.2776 8.6102 14.3977C7.93452 14.5646 4.00228 14.9134 3.5164 15.0335C0.70321 15.3161 -0.300122 11.22 1.45623 9.54836L2.61781 9.26132C3.20239 9.11687 7.71157 8.6255 8.19745 8.50543L14.7948 6.87516C14.7948 6.87516 16.1511 7.77767 16.7281 7.63509C17.985 7.73707 23.731 7.66003 25.044 7.95845C25.5299 7.83839 28.3673 7.65495 29.043 7.48798C30.1134 7.22346 31.8528 7.61877 33.1172 7.71888C33.6483 8.21053 35.7254 9.5578 34.22 10.5446C33.8328 10.6403 32.7832 11.4174 32.7832 11.4174L26.7629 12.905C26.277 13.0251 19.4162 13.5799 18.8316 13.7243L17.2829 14.107C17.2829 14.107 16.2861 15.4939 15.9422 16.1937L15.4453 18.7999L14.7803 20.7196C14.7803 20.7196 14.3905 22.0536 14.5101 22.5418C14.6764 23.2207 14.3978 26.2907 14.5174 26.7788C14.6855 27.4653 14.0733 29.9949 14.191 30.4754C14.0361 32.3743 14.163 37.0995 11.0681 36.6265C10.4836 36.771 9.15726 35.9581 9.15726 35.9581L8.48837 33.2274C8.4997 33.2408 8.51251 30.7623 8.82264 29.9576ZM69.0877 24.2713C68.9214 23.5925 68.2877 18.4748 68.1196 17.7883C68.1306 15.3021 67.8246 12.3766 66.3278 10.4734L65.4999 11.3008C64.9195 11.8568 61.1168 17.7633 60.6742 18.4875L59.3813 19.9476L57.5547 22.1543L55.3227 22.7059C53.5557 22.6248 52.3766 19.915 52.0665 18.6488C50.9117 16.0382 50.7044 13.0883 48.3865 11.1857L48.0202 11.7939C47.7458 13.2046 45.665 18.5805 45.2752 19.9145C44.8846 20.4235 44.2681 22.5416 44.3877 23.0297C44.0457 23.7371 43.1982 29.9408 42.8804 30.7473C42.8804 30.7473 41.1492 33.3431 40.634 34.1984C39.4831 36.2382 37.0882 35.6975 35.8633 33.622L35.5998 32.5465C35.5998 32.5465 36.1878 29.9177 36.5298 29.2103C36.3635 28.5315 37.9942 25.9525 37.8279 25.2736C38.5146 22.6205 39.1796 20.7008 39.7675 18.0721C40.1581 17.563 41.3868 12.9154 41.7531 12.3071L42.25 9.70092L43.3481 7.0513C43.2042 6.46397 44.3768 3.69079 44.259 3.21024C44.1152 2.62291 45.3538 0.974014 45.3538 0.974014L47.5858 0.422464C49.9097 0.673323 51.5929 5.01393 52.5848 6.5323C52.7287 7.11963 55.0641 12.019 55.1836 12.5072L56.0783 13.629C56.4204 12.9216 59.5599 8.94236 59.9262 8.33413C62.6551 5.17637 64.6532 1.17183 68.6823 0.791009C69.0695 0.695331 70.3825 0.993751 70.644 2.06162L72.0528 7.81288L71.9967 9.68731L72.8319 13.0969C72.9272 13.4859 72.969 16.5819 73.2548 17.7489C73.3744 18.2371 73.5608 20.6744 73.6804 21.1626L73.5464 23.574C73.8566 24.8402 74.6341 30.5452 74.9199 31.7122L74.2116 33.0278L70.3322 33.9865L69.6652 31.2634C69.497 30.5769 69.183 24.6603 69.0877 24.2713Z" fill="#6CACE4"/>
</svg>
