<svg width="141" height="141" viewBox="0 0 141 141" fill="none" xmlns="http://www.w3.org/2000/svg">
<path d="M20.6438 20.6508C42.2423 -0.947696 75.2837 -6.17875 102.501 7.6856C129.719 21.5499 144.902 51.3629 140.13 81.5232C135.349 111.684 111.697 135.346 81.5262 140.127C51.3558 144.909 21.5531 129.716 7.68878 102.499C-6.17553 75.2807 -0.954703 42.2494 20.6438 20.6508ZM37.7264 87.1936C44.96 101.395 60.5101 109.313 76.2543 106.82C91.9985 104.327 104.341 91.9853 106.833 76.2411C109.326 60.4968 101.398 44.9467 87.2068 37.7131C73.0053 30.4795 55.7694 33.2074 44.5002 44.4767C33.2208 55.7561 30.4929 73.0023 37.7264 87.1936Z" fill="#259789"/>
</svg>
