<svg width="33" height="52" viewBox="0 0 33 52" fill="none" xmlns="http://www.w3.org/2000/svg">
<path d="M19.4999 30.875C19.4999 31.7725 20.2275 32.5 21.1249 32.5C22.0224 32.5 22.7499 31.7725 22.7499 30.875C22.7499 29.9775 22.0224 29.25 21.1249 29.25C20.2275 29.25 19.4999 29.9775 19.4999 30.875Z" fill="#B2C541"/>
<path d="M29.25 30.875C29.25 31.7725 29.9775 32.5 30.875 32.5C31.7725 32.5 32.5 31.7725 32.5 30.875C32.5 29.9775 31.7725 29.25 30.875 29.25C29.9775 29.25 29.25 29.9775 29.25 30.875Z" fill="#B2C541"/>
<path d="M19.4999 40.625C19.4999 41.5225 20.2275 42.25 21.1249 42.25C22.0224 42.25 22.7499 41.5225 22.7499 40.625C22.7499 39.7275 22.0224 39 21.1249 39C20.2275 39 19.4999 39.7275 19.4999 40.625Z" fill="#B2C541"/>
<path d="M29.25 40.625C29.25 41.5225 29.9775 42.25 30.875 42.25C31.7725 42.25 32.5 41.5225 32.5 40.625C32.5 39.7275 31.7725 39 30.875 39C29.9775 39 29.25 39.7275 29.25 40.625Z" fill="#B2C541"/>
<path d="M19.4999 21.125C19.4999 22.0225 20.2275 22.75 21.1249 22.75C22.0224 22.75 22.7499 22.0225 22.7499 21.125C22.7499 20.2275 22.0224 19.5 21.1249 19.5C20.2275 19.5 19.4999 20.2275 19.4999 21.125Z" fill="#B2C541"/>
<path d="M29.25 21.125C29.25 22.0225 29.9775 22.75 30.875 22.75C31.7725 22.75 32.5 22.0225 32.5 21.125C32.5 20.2275 31.7725 19.5 30.875 19.5C29.9775 19.5 29.25 20.2275 29.25 21.125Z" fill="#B2C541"/>
<path d="M19.4999 11.3749C19.4999 12.2723 20.2275 12.9999 21.1249 12.9999C22.0224 12.9999 22.7499 12.2723 22.7499 11.3749C22.7499 10.4774 22.0224 9.74988 21.1249 9.74988C20.2275 9.74988 19.4999 10.4774 19.4999 11.3749Z" fill="#B2C541"/>
<path d="M29.25 11.3749C29.25 12.2723 29.9775 12.9999 30.875 12.9999C31.7725 12.9999 32.5 12.2723 32.5 11.3749C32.5 10.4774 31.7725 9.74988 30.875 9.74988C29.9775 9.74988 29.25 10.4774 29.25 11.3749Z" fill="#B2C541"/>
<path d="M-0.000147414 21.125C-0.000147453 22.0225 0.727389 22.75 1.62485 22.75C2.52231 22.75 3.24985 22.0225 3.24985 21.125C3.24985 20.2275 2.52231 19.5 1.62485 19.5C0.727389 19.5 -0.000147374 20.2275 -0.000147414 21.125Z" fill="#B2C541"/>
<path d="M9.74991 21.125C9.74991 22.0225 10.4774 22.75 11.3749 22.75C12.2724 22.75 12.9999 22.0225 12.9999 21.125C12.9999 20.2275 12.2724 19.5 11.3749 19.5C10.4774 19.5 9.74991 20.2275 9.74991 21.125Z" fill="#B2C541"/>
<path d="M9.74991 30.875C9.74991 31.7725 10.4774 32.5 11.3749 32.5C12.2724 32.5 12.9999 31.7725 12.9999 30.875C12.9999 29.9775 12.2724 29.25 11.3749 29.25C10.4774 29.25 9.74991 29.9775 9.74991 30.875Z" fill="#B2C541"/>
<path d="M19.4999 50.375C19.4999 51.2725 20.2275 52 21.1249 52C22.0224 52 22.7499 51.2725 22.7499 50.375C22.7499 49.4775 22.0224 48.75 21.1249 48.75C20.2275 48.75 19.4999 49.4775 19.4999 50.375Z" fill="#B2C541"/>
<path d="M29.25 50.375C29.25 51.2725 29.9775 52 30.875 52C31.7725 52 32.5 51.2725 32.5 50.375C32.5 49.4775 31.7725 48.75 30.875 48.75C29.9775 48.75 29.25 49.4775 29.25 50.375Z" fill="#B2C541"/>
<path d="M-0.000147414 30.875C-0.000147453 31.7725 0.727389 32.5 1.62485 32.5C2.52231 32.5 3.24985 31.7725 3.24985 30.875C3.24985 29.9775 2.52231 29.25 1.62485 29.25C0.727389 29.25 -0.000147374 29.9775 -0.000147414 30.875Z" fill="#B2C541"/>
<path d="M-0.000147414 40.625C-0.000147453 41.5225 0.727389 42.25 1.62485 42.25C2.52231 42.25 3.24985 41.5225 3.24985 40.625C3.24985 39.7275 2.52231 39 1.62485 39C0.727389 39 -0.000147374 39.7275 -0.000147414 40.625Z" fill="#B2C541"/>
<path d="M-0.000147414 50.375C-0.000147453 51.2725 0.727389 52 1.62485 52C2.52231 52 3.24985 51.2725 3.24985 50.375C3.24985 49.4775 2.52231 48.75 1.62485 48.75C0.727389 48.75 -0.000147374 49.4775 -0.000147414 50.375Z" fill="#B2C541"/>
<path d="M9.74991 40.625C9.74991 41.5225 10.4774 42.25 11.3749 42.25C12.2724 42.25 12.9999 41.5225 12.9999 40.625C12.9999 39.7275 12.2724 39 11.3749 39C10.4774 39 9.74991 39.7275 9.74991 40.625Z" fill="#B2C541"/>
<path d="M9.74991 50.375C9.74991 51.2725 10.4774 52 11.3749 52C12.2724 52 12.9999 51.2725 12.9999 50.375C12.9999 49.4775 12.2724 48.75 11.3749 48.75C10.4774 48.75 9.74991 49.4775 9.74991 50.375Z" fill="#B2C541"/>
<path d="M-0.000147414 11.3749C-0.000147453 12.2723 0.727389 12.9999 1.62485 12.9999C2.52231 12.9999 3.24985 12.2723 3.24985 11.3749C3.24985 10.4774 2.52231 9.74988 1.62485 9.74988C0.727389 9.74988 -0.000147374 10.4774 -0.000147414 11.3749Z" fill="#B2C541"/>
<path d="M9.74991 11.3749C9.74991 12.2723 10.4774 12.9999 11.3749 12.9999C12.2724 12.9999 12.9999 12.2723 12.9999 11.3749C12.9999 10.4774 12.2724 9.74988 11.3749 9.74988C10.4774 9.74988 9.74991 10.4774 9.74991 11.3749Z" fill="#B2C541"/>
<path d="M19.4999 1.625C19.4999 2.52246 20.2275 3.25 21.1249 3.25C22.0224 3.25 22.7499 2.52246 22.7499 1.625C22.7499 0.727538 22.0224 -3.18017e-08 21.1249 -7.10312e-08C20.2275 -1.10261e-07 19.4999 0.727537 19.4999 1.625Z" fill="#B2C541"/>
<path d="M29.25 1.625C29.25 2.52246 29.9775 3.25 30.875 3.25C31.7725 3.25 32.5 2.52246 32.5 1.625C32.5 0.727538 31.7725 -3.18017e-08 30.875 -7.10311e-08C29.9775 -1.1026e-07 29.25 0.727537 29.25 1.625Z" fill="#B2C541"/>
<path d="M-0.000147414 1.625C-0.000147453 2.52246 0.727389 3.25 1.62485 3.25C2.52231 3.25 3.24985 2.52246 3.24985 1.625C3.24985 0.727538 2.52231 -3.18016e-08 1.62485 -7.10309e-08C0.727389 -1.1026e-07 -0.000147374 0.727537 -0.000147414 1.625Z" fill="#B2C541"/>
<path d="M9.74991 1.625C9.74991 2.52246 10.4774 3.25 11.3749 3.25C12.2724 3.25 12.9999 2.52246 12.9999 1.625C12.9999 0.727538 12.2724 -3.18017e-08 11.3749 -7.1031e-08C10.4774 -1.1026e-07 9.74991 0.727537 9.74991 1.625Z" fill="#B2C541"/>
</svg>
