<svg width="115" height="120" viewBox="0 0 115 120" fill="none" xmlns="http://www.w3.org/2000/svg">
    <path
        d="M26.83 90.2686C23.7071 87.1457 21.0374 83.5075 18.9514 79.4223C10.5264 62.8891 13.7052 42.8046 26.83 29.6798L41.3144 44.1642C34.4664 51.0122 32.8087 61.486 37.2044 70.1158C38.2909 72.2453 39.6878 74.1451 41.3144 75.7717L26.83 90.2686Z"
        fill="white" stroke="#F2F3F2" stroke-width="4" />
    <path
        d="M87.4122 90.2687C81.1665 96.5145 72.9899 100.836 63.8199 102.288C50.0184 104.474 36.3411 99.7801 26.8235 90.2687L41.3141 75.7781C46.2747 80.7387 53.4145 83.191 60.6163 82.0487C65.3969 81.2912 69.6621 79.0375 72.9216 75.7781L87.4122 90.2687Z"
        fill="white" stroke="#F2F3F2" stroke-width="4" />
    <path
        d="M87.4187 29.6798C96.9301 39.1912 101.624 52.8748 99.4383 66.6763C97.9856 75.84 93.6644 84.0166 87.4187 90.2686L72.9342 75.7842C76.1937 72.5247 78.4474 68.2595 79.2048 63.4789C80.3472 56.277 77.8948 49.1435 72.9342 44.1767L87.4187 29.6798Z"
        fill="white" stroke="#F2F3F2" stroke-width="4" />
    <path
        d="M26.8298 29.6861C39.9545 16.5613 60.0329 13.3826 76.5723 21.8075C80.6575 23.8874 84.2957 26.5632 87.4186 29.6861L72.9279 44.1767C71.3013 42.5501 69.4015 41.1532 67.272 40.0667C58.6421 35.6711 48.1684 37.3288 41.3204 44.1767L26.8298 29.6861Z"
        fill="white" stroke="#F2F3F2" stroke-width="4" />
    <path
        d="M87.4003 107.384C81.1342 113.677 73.0068 117.976 63.8248 119.472C50.0517 121.652 36.3407 116.979 26.8484 107.384L41.3039 92.866C46.2672 97.8506 53.4019 100.281 60.5986 99.1591C65.3758 98.4114 69.6566 96.106 72.8827 92.866L87.4003 107.384Z"
        fill="#259789" />
    <path
        d="M101.635 29.7435C111.169 39.2358 115.905 52.9468 113.724 66.7199C112.291 75.9019 107.929 84.0293 101.635 90.2954L87.1147 75.8399C90.4175 72.5517 92.661 68.3329 93.4088 63.5558C94.5305 56.3591 92.1001 49.2244 87.1147 44.2611L101.635 29.7435Z"
        fill="#F0A600" />
    <path
        d="M12.5505 90.2618C9.44732 87.1586 6.77859 83.4968 4.66843 79.4007C-3.77219 62.8918 -0.544892 42.7832 12.5505 29.6879L27.0113 44.1486C20.1843 50.9756 18.5086 61.4643 22.9151 70.0911C23.9702 72.2013 25.3976 74.1253 27.0113 75.7389L12.5505 90.2618Z"
        fill="#259789" />
    <mask id="mask0_384_2406" style="mask-type:alpha" maskUnits="userSpaceOnUse" x="0" y="29" width="28" height="62">
        <path
            d="M12.5505 90.2618C9.44732 87.1586 6.77859 83.4968 4.66843 79.4007C-3.77219 62.8918 -0.544892 42.7832 12.5505 29.6879L27.0113 44.1486C20.1843 50.9756 18.5086 61.4643 22.9151 70.0911C23.9702 72.2013 25.3976 74.1253 27.0113 75.7389L12.5505 90.2618Z"
            fill="#00A19B" />
    </mask>
    <g mask="url(#mask0_384_2406)">
        <path d="M74.5584 22.8043L5.65887 91.7039L8.42363 94.4686L77.3232 25.5691L74.5584 22.8043Z" fill="#025EA1" />
        <path d="M69.0292 17.2937L0.129669 86.1932L2.89443 88.958L71.7939 20.0585L69.0292 17.2937Z" fill="#025EA1" />
        <path d="M63.5441 11.7391L-5.35544 80.6387L-2.59068 83.4034L66.3088 14.5039L63.5441 11.7391Z" fill="#025EA1" />
        <path d="M58.0153 6.22865L-10.8842 75.1282L-8.11946 77.8929L60.7801 8.9934L58.0153 6.22865Z" fill="#025EA1" />
        <path d="M52.5304 0.761974L-16.3691 69.6615L-13.6044 72.4263L55.2952 3.52673L52.5304 0.761974Z"
            fill="#025EA1" />
        <path d="M47.0012 -4.74877L-21.8983 64.1508L-19.1336 66.9155L49.766 -1.98401L47.0012 -4.74877Z"
            fill="#025EA1" />
    </g>
    <path
        d="M26.8313 12.5505C39.9267 -0.544892 60.0352 -3.77219 76.5441 4.66844C80.6403 6.77859 84.24 9.44732 87.4052 12.5505L72.9444 27.0113C71.3308 25.3976 69.4068 23.9702 67.2966 22.9151C58.6698 18.5086 48.1811 20.1843 41.3541 27.0113L26.8313 12.5505Z"
        fill="#EE6C23" />
    <mask id="mask1_384_2406" style="mask-type:alpha" maskUnits="userSpaceOnUse" x="26" y="0" width="62" height="28">
        <path
            d="M26.8313 12.5505C39.9267 -0.544892 60.0352 -3.77219 76.5441 4.66844C80.6403 6.77859 84.24 9.44732 87.4052 12.5505L72.9444 27.0113C71.3308 25.3976 69.4068 23.9702 67.2966 22.9151C58.6698 18.5086 48.1811 20.1843 41.3541 27.0113L26.8313 12.5505Z"
            fill="#F38932" />
    </mask>
    <g mask="url(#mask1_384_2406)">
        <path d="M88.839 5.66713L19.9395 74.5667L22.7043 77.3314L91.6038 8.43189L88.839 5.66713Z" fill="#B22174" />
        <path d="M83.3098 0.156505L14.4103 69.056L17.1751 71.8208L86.0746 2.92126L83.3098 0.156505Z" fill="#B22174" />
        <path d="M77.8247 -5.39782L8.9252 63.5017L11.69 66.2665L80.5895 -2.63306L77.8247 -5.39782Z" fill="#B22174" />
        <path d="M72.2962 -10.9086L3.39667 57.991L6.16142 60.7557L75.0609 -8.1438L72.2962 -10.9086Z" fill="#B22174" />
        <path d="M66.8113 -16.3752L-2.08823 52.5243L0.676532 55.2891L69.5761 -13.6105L66.8113 -16.3752Z"
            fill="#B22174" />
        <path d="M61.2818 -21.8859L-7.61768 47.0137L-4.85292 49.7784L64.0466 -19.1211L61.2818 -21.8859Z"
            fill="#B22174" />
    </g>
</svg>