<svg width="18" height="25" viewBox="0 0 18 25" fill="none" xmlns="http://www.w3.org/2000/svg">
<path d="M19.8106 9.04044L16.8946 8.73344C16.2994 10.6618 15.8017 12.6126 15.6294 14.4842L17.8151 14.8324C18.3469 15.2114 19.593 15.395 19.2377 16.036C17.9541 16.4636 16.6776 16.6361 15.4501 16.6108C14.0205 18.3475 15.1243 21.1835 13.8554 22.9057C12.8374 22.6204 11.8752 24.3618 11.1493 23.4723C9.96285 21.9084 11.9279 20.2949 11.7144 18.7492L12.4108 16.3782C10.9213 16.1386 9.45059 15.8006 7.90119 15.5986C7.65791 16.8852 7.41463 18.1719 7.22002 19.4697C6.40433 20.7789 7.4746 23.09 5.67444 23.9675C4.62649 24.5006 4.51435 22.5124 3.58256 22.2983C3.14086 20.1829 5.36436 18.1115 4.75029 15.8539L5.09097 15.2609C4.52973 15.2346 3.95731 15.2571 3.32426 15.3207C2.23924 14.6569 0.0272889 14.8712 0.0606957 13.3822C0.31915 12.2531 2.4338 12.6878 2.70342 11.5099C3.68041 11.7344 3.97998 12.68 4.98278 12.8077L5.93343 12.9235C6.40092 11.3289 6.69683 9.58848 6.94407 7.8369L6.44267 7.77302C5.63805 7.69082 5.02818 8.32464 4.29457 8.15605C4.6017 7.03815 2.91744 6.75379 3.17509 5.62818C3.84476 4.28547 5.33436 5.19637 6.35281 5.01592C6.67469 5.1926 7.05292 5.33088 7.43464 5.46996C7.88374 3.50799 7.97378 1.77164 9.09585 0.0193518C9.61242 0.240776 10.3755 0.0566681 10.5104 0.8103C10.1547 2.5883 9.82206 4.26524 9.54848 5.90806C11.3447 6.16681 13.4035 6.17408 15.2708 6.34644C15.806 4.45563 16.3525 2.51604 16.8614 0.516476C17.3106 -0.10292 17.9209 0.396798 18.4898 0.373485C18.8007 2.61281 17.947 4.32773 17.4907 6.54482C19.0665 6.8556 20.4438 7.37755 21.3387 8.40854L21.3873 8.41972C21.3449 9.08491 20.3679 8.86038 19.8106 9.04044ZM8.32422 13.3189L13.1371 14.1168L14.7206 8.54195L9.21886 8.05155L8.32422 13.3189Z" fill="#B2C541"/>
</svg>
