<svg width="63" height="72" viewBox="0 0 63 72" fill="none" xmlns="http://www.w3.org/2000/svg">
<path d="M57.687 27.1581L49.1721 26.2616C47.4343 31.8926 45.9808 37.5889 45.4779 43.0537L51.86 44.0706C53.4127 45.1772 57.0516 45.7135 56.014 47.5852C52.2658 48.8338 48.5385 49.3375 44.9541 49.2636C40.7798 54.3346 44.0029 62.6159 40.2977 67.6447C37.3253 66.8116 34.5156 71.8964 32.3958 69.2991C28.9314 64.7327 34.6692 60.021 34.046 55.5076L36.0796 48.5844C31.7301 47.8847 27.4356 46.8978 22.9114 46.3079C22.201 50.0649 21.4906 53.8219 20.9224 57.6115C18.5406 61.4342 21.6657 68.1828 16.4093 70.745C13.3493 72.3018 13.0218 66.4962 10.301 65.8709C9.01122 59.6941 15.5038 53.6457 13.7108 47.0533L14.7056 45.3218C13.0667 45.2451 11.3953 45.3108 9.54677 45.4965C6.37849 43.5581 -0.0803948 44.1838 0.0171536 39.8361C0.771838 36.5392 6.94661 37.8083 7.7339 34.3689C10.5867 35.0245 11.4615 37.7855 14.3896 38.1585L17.1655 38.4965C18.5306 33.8403 19.3947 28.7584 20.1166 23.6437L18.6525 23.4572C16.303 23.2172 14.5222 25.068 12.3801 24.5757C13.2769 21.3114 8.35884 20.4811 9.1112 17.1943C11.0666 13.2736 15.4163 15.9334 18.3901 15.4065C19.33 15.9224 20.4345 16.3262 21.5491 16.7323C22.8604 11.0033 23.1234 5.93318 26.3998 0.816508C27.9082 1.46307 30.1365 0.925471 30.5304 3.12608C29.4916 8.31784 28.5203 13.2145 27.7215 18.0115C32.9666 18.7671 38.9781 18.7883 44.4305 19.2916C45.9936 13.7704 47.5892 8.10684 49.0753 2.26811C50.387 0.459475 52.1689 1.91865 53.8302 1.85058C54.7378 8.38939 52.2451 13.397 50.9128 19.8709C55.514 20.7783 59.5358 22.3024 62.1488 25.3129L62.2909 25.3456C62.1669 27.2879 59.3141 26.6323 57.687 27.1581ZM24.1466 39.651L38.2002 41.981L42.8241 25.7025L26.759 24.2705L24.1466 39.651Z" fill="#B2C541"/>
</svg>
