<svg width="23" height="34" viewBox="0 0 23 34" fill="none" xmlns="http://www.w3.org/2000/svg">
<path d="M22.0144 6.24042C20.8824 7.83555 21.6969 9.5262 21.0619 11.3092C20.3821 13.2323 20.7445 15.4864 20.0646 17.4127C20.427 20.8386 19.3399 24.4523 19.4746 27.8813C19.0673 28.6327 19.5195 29.8999 19.0673 30.6991C18.0251 30.8869 17.3004 32.014 16.348 32.342C14.5811 30.559 15.0781 27.9291 13.5389 26.006L11.0472 21.5008C8.69024 21.8765 9.87033 24.8343 8.46256 26.1939C8.69024 27.6011 7.28567 28.3048 7.28567 29.6197C7.37546 30.4635 7.15099 31.6861 6.69563 32.5298C6.65073 33.0934 6.10558 33.4691 5.69832 33.9848C4.8357 34.0326 3.70372 34.0326 3.74861 32.9533C4.65613 29.6197 3.06877 27.0854 2.88599 23.9397C2.56852 20.4183 1.93358 16.8046 2.16126 13.331L2.29595 13.1431L1.52632 6.7594C0.756698 5.53997 0.618806 4.08493 0.121757 2.72223C-0.468288 1.1271 1.25375 1.1271 1.70911 0C4.29376 0.799156 2.57173 4.50521 3.29646 6.61931C4.9287 11.3601 4.52144 16.3811 5.10828 21.3098C5.01849 22.7171 5.19807 24.0798 5.8779 25.2514C7.55504 23.2806 8.05209 20.4629 8.59724 17.7884C9.32197 17.5528 8.68704 16.7568 9.23219 16.3811C9.82223 15.8653 10.4572 15.6297 11.1819 15.582C12.6314 17.1771 12.3139 19.8547 14.1738 21.4976C14.8985 22.7648 14.6709 24.4077 16.1684 25.3947C16.1235 25.7704 16.1684 26.1461 16.5308 26.3817C17.3004 25.8182 16.6206 24.6465 17.1657 23.9874C17.4383 21.6887 17.6179 19.998 17.4832 17.8393C19.2052 15.0693 17.3485 11.4556 19.0705 8.63789C18.9808 7.41846 18.9808 5.68006 19.2533 4.36511C20.1608 3.70923 20.6579 2.01859 22.0625 2.72223C23.5536 3.75381 21.7867 4.92547 22.0144 6.24042Z" fill="#259789"/>
</svg>
